<svg id="Layer_1" data-name="Layer 1" xmlns="http://www.w3.org/2000/svg" viewBox="0 0 209.8 40.36"><defs><style>.cls-1{fill:#87d4e9;}.cls-1,.cls-2,.cls-3,.cls-4{fill-rule:evenodd;}.cls-2{fill:#00b5d6;}.cls-3,.cls-5{fill:#234363;}.cls-4{fill:#fff;}.cls-6{fill:#00b5d7;}</style></defs><title>logo</title><path class="cls-1" d="M213.82,316.91H225a4.81,4.81,0,0,1,4.79,4.79v11.18a16,16,0,0,1-16,16h0a16,16,0,0,1-16-16h0A16,16,0,0,1,213.82,316.91Z" transform="translate(-189.79 -316.91)"/><path class="cls-2" d="M210.13,321h11.18a4.81,4.81,0,0,1,4.79,4.79v11.18a16,16,0,0,1-16,16h0a16,16,0,0,1-16-16h0A16,16,0,0,1,210.13,321Z" transform="translate(-189.79 -316.91)"/><path class="cls-3" d="M205.76,325.33h11.18a4.81,4.81,0,0,1,4.79,4.8V341.3a16,16,0,0,1-16,16h0a16,16,0,0,1-16-16h0A16,16,0,0,1,205.76,325.33Z" transform="translate(-189.79 -316.91)"/><path class="cls-4" d="M209.82,340.15c-.6,1.48-.74,2.2-2.14,2.2H202c-1.62,0-2.74.22-3.21,1.62l-1.95,5.91c-.05.14,0,.21.17.21l5.06,0c.13,0,.18,0,.22-.13l2.1-6h4.1a2.39,2.39,0,0,0,2.27-1.61l1-2.61c.35-.9.11-1.23-.87-1.23h-4.41l.92-3h6.23a2,2,0,0,0,1.89-1.08l1.22-3.35c.34-.92-.59-1-1.69-1h-8.39c-2.17,0-3.46.55-4.11,2.27l-1.81,5.71c-.5,1.57-.63,2.08,1.84,2.07Zm-5.34-1.63h-1.77c-.37,0-.28-.12-.23-.33l1.73-5.26a1.53,1.53,0,0,1,1.66-1.2h8.8c-.65,1.89-.77,2.2-2.77,2.2H207a1.9,1.9,0,0,0-1.37,1.37l-1,3a.23.23,0,0,1-.21.18Zm-5.38,10c-.17,0-.14,0-.1-.15l1-2.89a1.87,1.87,0,0,1,2.17-1.5h.58l-1.59,4.47c0,.08,0,.07-.1.07Z" transform="translate(-189.79 -316.91)"/><path class="cls-5" d="M249.14,331.76a.59.59,0,0,0-.63.41l-.56,3.26h7.28l-.91,5.15H247L245.72,348H239l3-17.4a4.76,4.76,0,0,1,1.72-3.08,5.61,5.61,0,0,1,3.56-1.07h10.3l-.94,5.28Z" transform="translate(-189.79 -316.91)"/><path class="cls-5" d="M264.68,341.34c-.63,0-1.12-.09-1.47-.13L262,348h-6.4l3-17.4a4.92,4.92,0,0,1,1.68-3.05,5.51,5.51,0,0,1,3.6-1.1h4.65c2.88,0,4.85.66,5.88,2s1.34,3.2.9,5.62a8.06,8.06,0,0,1-4.4,6.32q.45,1.16,1.35,3.72c.61,1.7,1.09,3,1.45,3.91h-7Zm.79-9.74a.62.62,0,0,0-.66.54l-.76,4.27c.8.06,1.54.09,2.23.09a2.64,2.64,0,0,0,1.82-.5,2.93,2.93,0,0,0,.73-1.7l.09-.5c.25-1.46-.23-2.2-1.44-2.2Z" transform="translate(-189.79 -316.91)"/><path class="cls-5" d="M295,327.19a4.78,4.78,0,0,1,2.22,3.75,22.76,22.76,0,0,1-.42,6.31,29.9,29.9,0,0,1-1.24,5,10.88,10.88,0,0,1-2,3.44,7.35,7.35,0,0,1-3.41,2.17,17.5,17.5,0,0,1-5.2.66c-2.74,0-4.77-.42-6.08-1.24a4.76,4.76,0,0,1-2.22-3.74,23.36,23.36,0,0,1,.39-6.3,28.79,28.79,0,0,1,1.25-5,11.08,11.08,0,0,1,2.05-3.45,7.27,7.27,0,0,1,3.4-2.17,17.5,17.5,0,0,1,5.2-.66Q293,326,295,327.19Zm-4.86,8.43a6.57,6.57,0,0,0,.05-3.22c-.24-.55-.83-.83-1.77-.83h-1a2.38,2.38,0,0,0-2.05.85,8,8,0,0,0-1.06,3.2l-.56,3.21a6.63,6.63,0,0,0,0,3.2c.24.56.82.85,1.74.85h1a2.44,2.44,0,0,0,2.06-.85,8.33,8.33,0,0,0,1.08-3.2Z" transform="translate(-189.79 -316.91)"/><path class="cls-5" d="M305.21,332.42c0-.15-.07-.22-.15-.22s-.17.08-.13.25a35,35,0,0,1-.19,5.28c-.21,2.32-.48,4.47-.81,6.43l-.69,3.87h-6.1l3.14-17.9q.66-4,5.44-4a5.27,5.27,0,0,1,3.39.89,4.88,4.88,0,0,1,1.41,3.06l1.92,12c.06.15.11.22.15.22s.16-.08.16-.25a36.78,36.78,0,0,1,.17-5.24c.2-2.33.47-4.48.8-6.47l.69-3.87h6.13l-3.14,17.9q-.72,4-5.47,4.05a5.19,5.19,0,0,1-3.43-.92,4.82,4.82,0,0,1-1.4-3.1Z" transform="translate(-189.79 -316.91)"/><path class="cls-5" d="M326.34,331.92h-5.46l1-5.44h17.9l-1,5.44H333L330.21,348h-6.69Z" transform="translate(-189.79 -316.91)"/><path class="cls-6" d="M343.45,328.93l-1.31,7.57h10.39l-.16.75H342l-1.45,8.29a1.59,1.59,0,0,0,.19,1.29,1.73,1.73,0,0,0,1.42.44h10l-.12.76H341.82a3.86,3.86,0,0,1-.7-.07,3.26,3.26,0,0,1-.76-.26,1.27,1.27,0,0,1-.61-.71,2.35,2.35,0,0,1-.06-1.26l3-17a2.6,2.6,0,0,1,1-1.7,3.14,3.14,0,0,1,2-.6h10.24l-.13.76H345.68A2,2,0,0,0,343.45,328.93Z" transform="translate(-189.79 -316.91)"/><path class="cls-6" d="M363.49,328.43a3.17,3.17,0,0,0-.54-1.07.92.92,0,0,0-.72-.31c-.65,0-1.07.53-1.26,1.6L357.55,348h-.85l3.43-19.47c.27-1.53,1-2.3,2.23-2.3.85,0,1.48.57,1.88,1.7l6.25,18.09a3,3,0,0,0,.53,1.06.93.93,0,0,0,.72.32c.65,0,1.07-.53,1.26-1.6l3.42-19.38h.85l-3.42,19.47c-.27,1.53-1,2.29-2.23,2.29-.86,0-1.49-.56-1.88-1.69Z" transform="translate(-189.79 -316.91)"/><path class="cls-6" d="M397,345q-.54,3.33-7.35,3.33-5,0-6.7-2.47t-.62-8.52q1.11-6.19,3.57-8.64c1.64-1.63,4.29-2.45,7.93-2.45a24.38,24.38,0,0,1,5.74.63l-.28.75a30,30,0,0,0-5.78-.59,13.41,13.41,0,0,0-4.33.61,6.87,6.87,0,0,0-2.94,1.91,10.15,10.15,0,0,0-1.8,3,21.86,21.86,0,0,0-1.1,4.19l-.22,1.22a16.64,16.64,0,0,0-.38,4.09,7.2,7.2,0,0,0,.76,3,4.19,4.19,0,0,0,2.21,1.87,10.78,10.78,0,0,0,4.07.64,12.25,12.25,0,0,0,4.61-.66,2.84,2.84,0,0,0,1.82-2.23l1.48-8.29h.85Z" transform="translate(-189.79 -316.91)"/></svg>